<svg xmlns="http://www.w3.org/2000/svg" xmlns:xlink="http://www.w3.org/1999/xlink" contentStyleType="text/css" data-diagram-type="DESCRIPTION" height="260px" preserveAspectRatio="none" style="width:2688px;height:260px;background:#FFFFFF;" version="1.1" viewBox="0 0 2688 260" width="2688px" zoomAndPan="magnify"><defs/><g><!--cluster IoT Parking Service--><g id="cluster_IoT Parking Service"><path d="M8.5,128.5 L162.5361,128.5 A3.75,3.75 0 0 1 165.0361,131 L172.0361,150.7969 L2678.5,150.7969 A2.5,2.5 0 0 1 2681,153.2969 L2681,251 A2.5,2.5 0 0 1 2678.5,253.5 L8.5,253.5 A2.5,2.5 0 0 1 6,251 L6,131 A2.5,2.5 0 0 1 8.5,128.5 " fill="transparent" style="stroke:#000000;stroke-width:1.5;"/><line style="stroke:#000000;stroke-width:1.5;" x1="6" x2="172.0361" y1="150.7969" y2="150.7969"/><text fill="#000000" font-family="sans-serif" font-size="14" font-weight="bold" lengthAdjust="spacing" textLength="153.0361" x="10" y="143.4951">IoT Parking Service</text></g><g id="elem_SendData"><ellipse cx="151.0931" cy="200.7186" fill="#F1F1F1" rx="129.0931" ry="28.2186" style="stroke:#181818;stroke-width:0.5;"/><text fill="#000000" font-family="sans-serif" font-size="14" lengthAdjust="spacing" textLength="226.6592" x="37.7635" y="203.5653">&#1054;&#1090;&#1087;&#1088;&#1072;&#1074;&#1080;&#1090;&#1100; &#1076;&#1072;&#1085;&#1085;&#1099;&#1077; &#1086; &#1087;&#1072;&#1088;&#1082;&#1086;&#1074;&#1082;&#1077;</text></g><g id="elem_RequestParking"><ellipse cx="487.9982" cy="200.3996" fill="#F1F1F1" rx="172.4982" ry="36.8996" style="stroke:#181818;stroke-width:0.5;"/><text fill="#000000" font-family="sans-serif" font-size="14" lengthAdjust="spacing" textLength="317.0576" x="329.4694" y="203.2463">&#1047;&#1072;&#1087;&#1088;&#1086;&#1089;&#1080;&#1090;&#1100; &#1076;&#1072;&#1085;&#1085;&#1099;&#1077; &#1086; &#1089;&#1074;&#1086;&#1073;&#1086;&#1076;&#1085;&#1099;&#1093; &#1087;&#1072;&#1088;&#1082;&#1086;&#1074;&#1082;&#1072;&#1093;</text></g><g id="elem_BookSpot"><ellipse cx="905.0361" cy="200.4072" fill="#F1F1F1" rx="145.0361" ry="31.4072" style="stroke:#181818;stroke-width:0.5;"/><text fill="#000000" font-family="sans-serif" font-size="14" lengthAdjust="spacing" textLength="260.1348" x="774.9687" y="203.2539">&#1047;&#1072;&#1073;&#1088;&#1086;&#1085;&#1080;&#1088;&#1086;&#1074;&#1072;&#1090;&#1100; &#1087;&#1072;&#1088;&#1082;&#1086;&#1074;&#1086;&#1095;&#1085;&#1086;&#1077; &#1084;&#1077;&#1089;&#1090;&#1086;</text></g><g id="elem_GetRoute"><ellipse cx="1276.771" cy="200.2542" fill="#F1F1F1" rx="129.271" ry="28.2542" style="stroke:#181818;stroke-width:0.5;"/><text fill="#000000" font-family="sans-serif" font-size="14" lengthAdjust="spacing" textLength="227.0352" x="1163.2535" y="203.1009">&#1055;&#1086;&#1083;&#1091;&#1095;&#1080;&#1090;&#1100; &#1084;&#1072;&#1088;&#1096;&#1088;&#1091;&#1090; &#1082; &#1087;&#1072;&#1088;&#1082;&#1086;&#1074;&#1082;&#1077;</text></g><g id="elem_MonitorSystem"><ellipse cx="1575.8552" cy="200.271" fill="#F1F1F1" rx="134.3552" ry="29.271" style="stroke:#181818;stroke-width:0.5;"/><text fill="#000000" font-family="sans-serif" font-size="14" lengthAdjust="spacing" textLength="237.7539" x="1456.9782" y="203.1177">&#1052;&#1086;&#1085;&#1080;&#1090;&#1086;&#1088;&#1080;&#1090;&#1100; &#1089;&#1086;&#1089;&#1090;&#1086;&#1103;&#1085;&#1080;&#1077; &#1089;&#1080;&#1089;&#1090;&#1077;&#1084;&#1099;</text></g><g id="elem_AnalyzeLogs"><ellipse cx="1840.1189" cy="200.7238" fill="#F1F1F1" rx="94.1189" ry="21.2238" style="stroke:#181818;stroke-width:0.5;"/><text fill="#000000" font-family="sans-serif" font-size="14" lengthAdjust="spacing" textLength="151.0059" x="1764.616" y="203.5705">&#1040;&#1085;&#1072;&#1083;&#1080;&#1079;&#1080;&#1088;&#1086;&#1074;&#1072;&#1090;&#1100; &#1083;&#1086;&#1075;&#1080;</text></g><g id="elem_ViewParking"><ellipse cx="2117.7961" cy="200.6592" fill="#F1F1F1" rx="148.7961" ry="32.1592" style="stroke:#181818;stroke-width:0.5;"/><text fill="#000000" font-family="sans-serif" font-size="14" lengthAdjust="spacing" textLength="267.9756" x="1983.8083" y="203.5059">&#1055;&#1088;&#1086;&#1089;&#1084;&#1072;&#1090;&#1088;&#1080;&#1074;&#1072;&#1090;&#1100; &#1089;&#1086;&#1089;&#1090;&#1086;&#1103;&#1085;&#1080;&#1077; &#1087;&#1072;&#1088;&#1082;&#1086;&#1074;&#1086;&#1082;</text></g><g id="elem_CollectMetrics"><ellipse cx="2390.0293" cy="200.5059" fill="#F1F1F1" rx="88.0293" ry="20.0059" style="stroke:#181818;stroke-width:0.5;"/><text fill="#000000" font-family="sans-serif" font-size="14" lengthAdjust="spacing" textLength="137.2656" x="2321.3965" y="203.3525">&#1057;&#1086;&#1073;&#1080;&#1088;&#1072;&#1090;&#1100; &#1084;&#1077;&#1090;&#1088;&#1080;&#1082;&#1080;</text></g><g id="elem_CollectLogs"><ellipse cx="2588.9177" cy="200.5835" fill="#F1F1F1" rx="75.9177" ry="17.5835" style="stroke:#181818;stroke-width:0.5;"/><text fill="#000000" font-family="sans-serif" font-size="14" lengthAdjust="spacing" textLength="108.3633" x="2531.7361" y="204.3311">&#1057;&#1086;&#1073;&#1080;&#1088;&#1072;&#1090;&#1100; &#1083;&#1086;&#1075;&#1080;</text></g><!--entity IoTDevice--><g id="elem_IoTDevice"><ellipse cx="150.8276" cy="14" fill="#F1F1F1" rx="8" ry="8" style="stroke:#181818;stroke-width:0.5;"/><path d="M150.8276,22 L150.8276,49 M137.8276,30 L163.8276,30 M150.8276,49 L137.8276,64 M150.8276,49 L163.8276,64 " fill="transparent" style="stroke:#181818;stroke-width:0.5;"/><text fill="#000000" font-family="sans-serif" font-size="14" lengthAdjust="spacing" textLength="109.6553" x="96" y="78.4951">IoT-&#1091;&#1089;&#1090;&#1088;&#1086;&#1081;&#1089;&#1090;&#1074;&#1086;</text></g><!--entity Vehicle--><g id="elem_Vehicle"><ellipse cx="905.0972" cy="14" fill="#F1F1F1" rx="8" ry="8" style="stroke:#181818;stroke-width:0.5;"/><path d="M905.0972,22 L905.0972,49 M892.0972,30 L918.0972,30 M905.0972,49 L892.0972,64 M905.0972,49 L918.0972,64 " fill="transparent" style="stroke:#181818;stroke-width:0.5;"/><text fill="#000000" font-family="sans-serif" font-size="14" lengthAdjust="spacing" textLength="184.1943" x="813" y="78.4951">&#1040;&#1074;&#1090;&#1086;&#1085;&#1086;&#1084;&#1085;&#1099;&#1081; &#1072;&#1074;&#1090;&#1086;&#1084;&#1086;&#1073;&#1080;&#1083;&#1100;</text></g><!--entity Admin--><g id="elem_Admin"><ellipse cx="1840.2109" cy="14" fill="#F1F1F1" rx="8" ry="8" style="stroke:#181818;stroke-width:0.5;"/><path d="M1840.2109,22 L1840.2109,49 M1827.2109,30 L1853.2109,30 M1840.2109,49 L1827.2109,64 M1840.2109,49 L1853.2109,64 " fill="transparent" style="stroke:#181818;stroke-width:0.5;"/><text fill="#000000" font-family="sans-serif" font-size="14" lengthAdjust="spacing" textLength="183.4219" x="1748.5" y="78.4951">&#1040;&#1076;&#1084;&#1080;&#1085;&#1080;&#1089;&#1090;&#1088;&#1072;&#1090;&#1086;&#1088; &#1089;&#1080;&#1089;&#1090;&#1077;&#1084;&#1099;</text></g><!--entity Monitoring--><g id="elem_Monitoring"><ellipse cx="2390.0518" cy="14" fill="#F1F1F1" rx="8" ry="8" style="stroke:#181818;stroke-width:0.5;"/><path d="M2390.0518,22 L2390.0518,49 M2377.0518,30 L2403.0518,30 M2390.0518,49 L2377.0518,64 M2390.0518,49 L2403.0518,64 " fill="transparent" style="stroke:#181818;stroke-width:0.5;"/><text fill="#000000" font-family="sans-serif" font-size="14" lengthAdjust="spacing" textLength="164.1035" x="2308" y="78.4951">&#1057;&#1080;&#1089;&#1090;&#1077;&#1084;&#1072; &#1084;&#1086;&#1085;&#1080;&#1090;&#1086;&#1088;&#1080;&#1085;&#1075;&#1072;</text></g><!--entity Logging--><g id="elem_Logging"><ellipse cx="2588.9272" cy="14" fill="#F1F1F1" rx="8" ry="8" style="stroke:#181818;stroke-width:0.5;"/><path d="M2588.9272,22 L2588.9272,49 M2575.9272,30 L2601.9272,30 M2588.9272,49 L2575.9272,64 M2588.9272,49 L2601.9272,64 " fill="transparent" style="stroke:#181818;stroke-width:0.5;"/><text fill="#000000" font-family="sans-serif" font-size="14" lengthAdjust="spacing" textLength="161.8545" x="2508" y="78.4951">&#1057;&#1080;&#1089;&#1090;&#1077;&#1084;&#1072; &#1083;&#1086;&#1075;&#1080;&#1088;&#1086;&#1074;&#1072;&#1085;&#1080;&#1103;</text></g><!--link RequestParking to BookSpot--><g id="link_RequestParking_BookSpot"><path d="M660.62,200.5 C693.56,200.5 721.73,200.5 753.7,200.5 " fill="transparent" id="RequestParking-to-BookSpot" style="stroke:#181818;stroke-width:1;stroke-dasharray:7.0,7.0;"/><polygon fill="#181818" points="759.7,200.5,750.7,196.5,754.7,200.5,750.7,204.5,759.7,200.5" style="stroke:#181818;stroke-width:1;"/><text fill="#000000" font-family="sans-serif" font-size="13" lengthAdjust="spacing" textLength="63.0068" x="678.75" y="193.5669">&#171;include&#187;</text></g><!--link BookSpot to GetRoute--><g id="link_BookSpot_GetRoute"><path d="M1050.16,200.5 C1082.17,200.5 1109.88,200.5 1141.23,200.5 " fill="transparent" id="BookSpot-to-GetRoute" style="stroke:#181818;stroke-width:1;stroke-dasharray:7.0,7.0;"/><polygon fill="#181818" points="1147.23,200.5,1138.23,196.5,1142.23,200.5,1138.23,204.5,1147.23,200.5" style="stroke:#181818;stroke-width:1;"/><text fill="#000000" font-family="sans-serif" font-size="13" lengthAdjust="spacing" textLength="61.1851" x="1068.25" y="193.5669">&#171;extend&#187;</text></g><!--link IoTDevice to SendData--><g id="link_IoTDevice_SendData"><path d="M151,81.63 C151,109.57 151,141.23 151,166.38 " fill="transparent" id="IoTDevice-to-SendData" style="stroke:#181818;stroke-width:1;"/><polygon fill="#181818" points="151,172.38,155,163.38,151,167.38,147,163.38,151,172.38" style="stroke:#181818;stroke-width:1;"/></g><!--link Vehicle to RequestParking--><g id="link_Vehicle_RequestParking"><path d="M812.97,78.71 C741.14,105.41 647.7638,140.1089 577.9738,166.0589 " fill="transparent" id="Vehicle-to-RequestParking" style="stroke:#181818;stroke-width:1;"/><polygon fill="#181818" points="572.35,168.15,582.1798,168.7626,577.0365,166.4074,579.3917,161.2641,572.35,168.15" style="stroke:#181818;stroke-width:1;"/></g><!--link Vehicle to BookSpot--><g id="link_Vehicle_BookSpot"><path d="M905,81.63 C905,108.32 905,137.87 905,162.92 " fill="transparent" id="Vehicle-to-BookSpot" style="stroke:#181818;stroke-width:1;"/><polygon fill="#181818" points="905,168.92,909,159.92,905,163.92,901,159.92,905,168.92" style="stroke:#181818;stroke-width:1;"/></g><!--link Vehicle to GetRoute--><g id="link_Vehicle_GetRoute"><path d="M994.1,81.63 C1063.53,110.55 1152.4114,147.5926 1212.6614,172.6926 " fill="transparent" id="Vehicle-to-GetRoute" style="stroke:#181818;stroke-width:1;"/><polygon fill="#181818" points="1218.2,175,1211.4303,167.8466,1213.5845,173.0772,1208.3539,175.2313,1218.2,175" style="stroke:#181818;stroke-width:1;"/></g><!--link Admin to MonitorSystem--><g id="link_Admin_MonitorSystem"><path d="M1776.77,81.63 C1729.02,109.66 1669.794,144.432 1626.944,169.592 " fill="transparent" id="Admin-to-MonitorSystem" style="stroke:#181818;stroke-width:1;"/><polygon fill="#181818" points="1621.77,172.63,1631.5564,171.5223,1626.0817,170.0983,1627.5057,164.6236,1621.77,172.63" style="stroke:#181818;stroke-width:1;"/></g><!--link Admin to AnalyzeLogs--><g id="link_Admin_AnalyzeLogs"><path d="M1840,81.63 C1840,112.26 1840,148.56 1840,173.27 " fill="transparent" id="Admin-to-AnalyzeLogs" style="stroke:#181818;stroke-width:1;"/><polygon fill="#181818" points="1840,179.27,1844,170.27,1840,174.27,1836,170.27,1840,179.27" style="stroke:#181818;stroke-width:1;"/></g><!--link Admin to ViewParking--><g id="link_Admin_ViewParking"><path d="M1906.59,81.63 C1955.42,108.85 2015.5601,142.3771 2060.6101,167.5071 " fill="transparent" id="Admin-to-ViewParking" style="stroke:#181818;stroke-width:1;"/><polygon fill="#181818" points="2065.85,170.43,2059.9388,162.5523,2061.4834,167.9942,2056.0415,169.5389,2065.85,170.43" style="stroke:#181818;stroke-width:1;"/></g><!--link Monitoring to CollectMetrics--><g id="link_Monitoring_CollectMetrics"><path d="M2390,81.63 C2390,112.61 2390,149.55 2390,174.13 " fill="transparent" id="Monitoring-to-CollectMetrics" style="stroke:#181818;stroke-width:1;"/><polygon fill="#181818" points="2390,180.13,2394,171.13,2390,175.13,2386,171.13,2390,180.13" style="stroke:#181818;stroke-width:1;"/></g><!--link Logging to CollectLogs--><g id="link_Logging_CollectLogs"><path d="M2589,81.63 C2589,113.69 2589,152.54 2589,176.63 " fill="transparent" id="Logging-to-CollectLogs" style="stroke:#181818;stroke-width:1;"/><polygon fill="#181818" points="2589,182.63,2593,173.63,2589,177.63,2585,173.63,2589,182.63" style="stroke:#181818;stroke-width:1;"/></g><!--SRC=[TLF1Qjj04BthAmQVceFx0IKOqWPAe84Ibzo5lBZ2YZQrrctJKd0IGWe99BTUIal-G74gwiYoyWkpVzJPqLfQ6VSW43FllPbvC-i7IewXioVVTVMvFjLdUeebFfe_d67P0Jy1IkwAZs4WFBz2uotEA5_Yahu2b_eA7m5J6opekySvBlGrqm_5-p28NF8Vmio9FBS5KyFJKz2dLGWpBFGLatS6Hs5SK- -QFAR0bOmAirdn0LEcxSiu94eO3__7NH3tWK9ct1drRdHkcFj63eU6w1txmSWV2dO7tlhZ4KMXByR6YWvyzG2UuIzIV38Za0Wreg-1fZDgnfGCi0Hyelccc7ET7BCjKwClui6khtpM-444er7o_9iqA35ZLqlAK5HVhCkc-eA53yI7YKYKxRQMl-SvbysyLHbNezINlC_C-9gnLILBlfHor3-MYiL-4s91btAvwhGm4lexVUVw333VFEzheGxaH0dM-DbU6-lGX6LLKz-O9BNHleOjPwtzaqI98zQw9N1AovpZt_NXx8QPk1FxqSaNGQjDgZ6itGM3pUsiQ1iQQTk4EIiUXkAJw_9TTVNLDLV6P5Owjqsyab4a0hKlr3WCaiqijscBvwO9tLujFE_Lcu4NiBqTna4q6OXUZw1rWa0hwnaaFYkwFC9yyxpwMKEtssikqZvN3gvTavkghy8DrclcPykXzigQkBkH9kgwshnXJgsvPr-fcp9Q_m00]--></g></svg>